<svg width="97" height="18" viewBox="0 0 97 18" fill="none" xmlns="http://www.w3.org/2000/svg">
<path d="M0.161594 0.92H11.1776V3.704H3.35359V7.16H10.6016V9.92H3.35359V17H0.161594V0.92ZM17.1647 11.624C16.3647 11.624 15.7407 11.776 15.2927 12.08C14.8607 12.384 14.6447 12.8 14.6447 13.328C14.6447 13.824 14.8207 14.208 15.1727 14.48C15.5247 14.752 15.9567 14.888 16.4687 14.888C17.4767 14.888 18.2687 14.568 18.8447 13.928V11.888C18.4287 11.712 17.8687 11.624 17.1647 11.624ZM13.1807 8.384H12.9407V5.648C13.2607 5.44 13.8047 5.24 14.5727 5.048C15.3567 4.856 16.1327 4.76 16.9007 4.76C18.4527 4.76 19.6847 5.136 20.5967 5.888C21.5247 6.64 21.9887 7.696 21.9887 9.056V17H19.0127V16.088C18.7087 16.424 18.2607 16.72 17.6687 16.976C17.0767 17.216 16.4207 17.336 15.7007 17.336C14.5647 17.336 13.5887 17 12.7727 16.328C11.9727 15.64 11.5727 14.68 11.5727 13.448C11.5727 12.232 12.0687 11.256 13.0607 10.52C14.0527 9.784 15.2847 9.416 16.7567 9.416C17.5407 9.416 18.2367 9.536 18.8447 9.776V9.32C18.8447 8.04 18.0287 7.4 16.3967 7.4C15.7247 7.4 15.0927 7.496 14.5007 7.688C13.9247 7.88 13.4847 8.112 13.1807 8.384ZM31.8699 8.288H31.6299C31.3259 8.048 30.9019 7.84 30.3579 7.664C29.8139 7.472 29.2539 7.376 28.6779 7.376C27.6219 7.376 27.0939 7.68 27.0939 8.288C27.0939 8.496 27.1899 8.688 27.3819 8.864C27.5899 9.04 27.7659 9.16 27.9099 9.224C28.0699 9.288 28.3339 9.384 28.7019 9.512L30.1899 10.088C31.0379 10.424 31.6939 10.856 32.1579 11.384C32.6219 11.912 32.8539 12.672 32.8539 13.664C32.8539 14.736 32.4139 15.616 31.5339 16.304C30.6539 16.992 29.5019 17.336 28.0779 17.336C26.5419 17.336 25.2619 17.032 24.2379 16.424V13.664H24.4779C24.8459 13.952 25.3579 14.208 26.0139 14.432C26.6859 14.64 27.2939 14.744 27.8379 14.744C29.2139 14.744 29.9019 14.368 29.9019 13.616C29.9019 13.296 29.7899 13.04 29.5659 12.848C29.3419 12.64 28.9499 12.432 28.3899 12.224L26.9979 11.696C25.1099 10.976 24.1659 9.808 24.1659 8.192C24.1659 7.248 24.5659 6.44 25.3659 5.768C26.1819 5.096 27.2219 4.76 28.4859 4.76C29.8299 4.76 30.9579 5.056 31.8699 5.648V8.288ZM42.2578 7.592H39.3298V13.328C39.3298 13.856 39.4498 14.2 39.6898 14.36C39.9138 14.52 40.3298 14.6 40.9378 14.6C41.4018 14.6 41.7778 14.56 42.0658 14.48V17.096C41.5538 17.192 40.8338 17.24 39.9058 17.24C38.5138 17.24 37.5378 16.96 36.9778 16.4C36.6418 16.064 36.4258 15.688 36.3298 15.272C36.2338 14.856 36.1858 14.264 36.1858 13.496V7.592H33.6418V5.096H36.1858V1.976H39.3298V5.096H42.2578V7.592Z" fill="black"/>
<path d="M55.859 8.312L53.699 13.112H51.155C50.067 10.728 49.347 9.128 48.995 8.312C48.803 7.896 48.547 7.32 48.227 6.584C47.923 5.832 47.683 5.248 47.507 4.832H47.483C47.483 5.12 47.499 5.664 47.531 6.464C47.563 7.248 47.579 7.872 47.579 8.336V17H44.435V0.92H48.659L51.371 6.968C51.547 7.384 51.739 7.872 51.947 8.432C52.171 8.976 52.323 9.36 52.403 9.584H52.427C52.875 8.4 53.235 7.512 53.507 6.92L56.219 0.92H60.347V17H57.203V8.288C57.203 7.824 57.219 7.208 57.251 6.44C57.283 5.672 57.299 5.136 57.299 4.832H57.275C57.195 5.024 56.987 5.536 56.651 6.368C56.331 7.184 56.067 7.832 55.859 8.312ZM73.2069 16.208C72.1829 16.96 70.7189 17.336 68.8149 17.336C66.9109 17.336 65.3829 16.768 64.2309 15.632C63.0949 14.48 62.5269 12.984 62.5269 11.144C62.5269 9.32 63.0869 7.8 64.2069 6.584C65.3269 5.368 66.7429 4.76 68.4549 4.76C70.1829 4.76 71.5429 5.36 72.5349 6.56C73.5429 7.76 74.0469 9.36 74.0469 11.36C74.0469 11.44 74.0389 11.552 74.0229 11.696C74.0229 11.84 74.0229 11.936 74.0229 11.984C74.0069 12.048 73.9989 12.144 73.9989 12.272H65.5749C65.8789 13.888 67.0469 14.696 69.0789 14.696C70.6629 14.696 71.9589 14.296 72.9669 13.496H73.2069V16.208ZM65.5509 9.944H71.0469C71.0149 9.128 70.7669 8.48 70.3029 8C69.8389 7.52 69.2229 7.28 68.4549 7.28C67.7029 7.28 67.0469 7.52 66.4869 8C65.9429 8.464 65.6309 9.112 65.5509 9.944ZM85.91 16.208C84.886 16.96 83.422 17.336 81.518 17.336C79.614 17.336 78.086 16.768 76.934 15.632C75.798 14.48 75.23 12.984 75.23 11.144C75.23 9.32 75.79 7.8 76.91 6.584C78.03 5.368 79.446 4.76 81.158 4.76C82.886 4.76 84.246 5.36 85.238 6.56C86.246 7.76 86.75 9.36 86.75 11.36C86.75 11.44 86.742 11.552 86.726 11.696C86.726 11.84 86.726 11.936 86.726 11.984C86.71 12.048 86.702 12.144 86.702 12.272H78.278C78.582 13.888 79.75 14.696 81.782 14.696C83.366 14.696 84.662 14.296 85.67 13.496H85.91V16.208ZM78.254 9.944H83.75C83.718 9.128 83.47 8.48 83.006 8C82.542 7.52 81.926 7.28 81.158 7.28C80.406 7.28 79.75 7.52 79.19 8C78.646 8.464 78.334 9.112 78.254 9.944ZM96.1172 7.592H93.1892V13.328C93.1892 13.856 93.3092 14.2 93.5492 14.36C93.7732 14.52 94.1892 14.6 94.7972 14.6C95.2612 14.6 95.6372 14.56 95.9252 14.48V17.096C95.4132 17.192 94.6932 17.24 93.7652 17.24C92.3732 17.24 91.3972 16.96 90.8372 16.4C90.5012 16.064 90.2852 15.688 90.1892 15.272C90.0932 14.856 90.0452 14.264 90.0452 13.496V7.592H87.5012V5.096H90.0452V1.976H93.1892V5.096H96.1172V7.592Z" fill="#8C8C8C"/>
</svg>
